<svg width="38" height="38" viewBox="0 0 38 38" fill="none" xmlns="http://www.w3.org/2000/svg">
<path d="M19 4.74999H7.91667C7.07681 4.74999 6.27136 5.08362 5.67749 5.67749C5.08363 6.27135 4.75 7.07681 4.75 7.91666V30.0833C4.75 30.9232 5.08363 31.7286 5.67749 32.3225C6.27136 32.9164 7.07681 33.25 7.91667 33.25H30.0833C30.9232 33.25 31.7286 32.9164 32.3225 32.3225C32.9164 31.7286 33.25 30.9232 33.25 30.0833V19M29.0937 4.15624C29.7236 3.52635 30.578 3.17249 31.4687 3.17249C32.3595 3.17249 33.2139 3.52635 33.8437 4.15624C34.4736 4.78613 34.8275 5.64044 34.8275 6.53124C34.8275 7.42204 34.4736 8.27635 33.8437 8.90624L19.5732 23.1784C19.1972 23.554 18.7327 23.829 18.2226 23.978L13.6737 25.308C13.5374 25.3477 13.393 25.3501 13.2555 25.3149C13.118 25.2797 12.9926 25.2081 12.8922 25.1078C12.7919 25.0074 12.7203 24.8819 12.6851 24.7445C12.6499 24.607 12.6523 24.4626 12.692 24.3263L14.022 19.7774C14.1717 19.2677 14.4472 18.8038 14.8232 18.4284L29.0937 4.15624Z" stroke="#B4EBC4" stroke-width="2" stroke-linecap="round" stroke-linejoin="round"/>
</svg>
